Format : AVI
Format/Info : Audio Video Interleave
File size : 975 MiB
Duration : 1h 36mn
Overall bit rate : 1 413 Kbps
Writing library : VirtualDub build 32842/release

Video
ID : 0
Format : MPEG-4 Visual
Format profile : Advanced Simple@L5
Format settings, BVOP : 2
Format settings, QPel : No
Format settings, GMC : No warppoints
Format settings, Matrix : Default (H.263)
Muxing mode : Packed bitstream
Codec ID : XVID
Codec ID/Hint : XviD
Duration : 1h 36mn
Bit rate : 1 271 Kbps
Width : 672 pixels
Height : 284 pixels
Display aspect ratio : 2.35:1
Frame rate : 29.970 fps
Color space : YUV
Chroma subsampling : 4:2:0
Bit depth : 8 bits
Scan type : Progressive
Compression mode : Lossy
Bits/(Pixel*Frame) : 0.222
Stream size : 877 MiB (90%)
Writing library : XviD 64

Audio
ID : 1
Format : MPEG Audio
Format version : Version 1
Format profile : Layer 3
Mode : Joint stereo
Mode extension : MS Stereo
Codec ID : 55
Codec ID/Hint : MP3
Duration : 1h 36mn
Bit rate mode : Constant
Bit rate : 128 Kbps
Channel(s) : 2 channels
Sampling rate : 48.0 KHz
Compression mode : Lossy
Stream size : 88.4 MiB (9%)
Alignment : Aligned on interleaves
Interleave, duration : 24 ms (0.72 video frame)
Interleave, preload duration : 504 ms





 
http://www.imdb.com/title/tt1222817/









Users: (1,299 votes) 36 reviews | Critics: 70 reviews Metascore: 30/100 (based on 27 reviews from Metacritic.com)


A group of zoo animals decide to break their code of silence in order to help their lovable zookeeper (Kevin James) find love -- without opting to leave his current job for something more illustrious. woman.

Director: Frank Coraci
Writers: Nick Bakay (screenplay), Rock Reuben (screenplay), and 5 more credits »
Stars: Kevin James, Rosario Dawson and Leslie Bibb